<svg xmlns="http://www.w3.org/2000/svg" version="1.1" xmlns:xlink="http://www.w3.org/1999/xlink" xmlns:svgjs="http://svgjs.dev/svgjs" width="1080" height="1080"><svg width="1080" height="1080" viewBox="0 0 1080 1080" fill="none" xmlns="http://www.w3.org/2000/svg">
<rect width="1080" height="1080" fill="black"></rect>
<path d="M723.676 701.478C723.676 701.478 705.493 737.408 673.485 745.985C641.477 754.561 607.765 732.536 607.765 732.536C607.765 732.536 625.948 696.606 657.956 688.029C689.963 679.453 723.676 701.478 723.676 701.478Z" fill="white"></path>
<path d="M834.423 638.481C834.423 638.481 826.159 677.893 797.462 694.462C768.764 711.03 730.5 698.481 730.5 698.481C730.5 698.481 738.764 659.069 767.462 642.5C796.159 625.932 834.423 638.481 834.423 638.481Z" fill="white"></path>
<path d="M925.066 548.213C925.066 548.213 927.284 588.422 903.853 611.853C880.421 635.284 840.213 633.066 840.213 633.066C840.213 633.066 837.995 592.858 861.426 569.427C884.858 545.995 925.066 548.213 925.066 548.213Z" fill="white"></path>
<path d="M600 733.251C600 733.251 573.137 763.251 540 763.251C506.863 763.251 480 733.251 480 733.251C480 733.251 506.863 703.251 540 703.251C573.137 703.251 600 733.251 600 733.251Z" fill="white"></path>
<path d="M356.604 700.478C356.604 700.478 374.787 736.408 406.795 744.985C438.803 753.561 472.515 731.536 472.515 731.536C472.515 731.536 454.332 695.606 422.324 687.029C390.316 678.453 356.604 700.478 356.604 700.478Z" fill="white"></path>
<path d="M245.856 637.481C245.856 637.481 254.12 676.893 282.818 693.462C311.515 710.03 349.779 697.481 349.779 697.481C349.779 697.481 341.515 658.069 312.818 641.5C284.12 624.931 245.856 637.481 245.856 637.481Z" fill="white"></path>
<path d="M155.213 547.213C155.213 547.213 152.995 587.421 176.427 610.853C199.858 634.284 240.066 632.066 240.066 632.066C240.066 632.066 242.284 591.858 218.853 568.426C195.421 544.995 155.213 547.213 155.213 547.213Z" fill="white"></path>
<path d="M723.676 377.773C723.676 377.773 705.493 341.843 673.485 333.266C641.477 324.69 607.764 346.715 607.764 346.715C607.764 346.715 625.947 382.645 657.955 391.222C689.963 399.798 723.676 377.773 723.676 377.773Z" fill="white"></path>
<path d="M834.423 440.77C834.423 440.77 826.159 401.358 797.462 384.789C768.764 368.221 730.5 380.77 730.5 380.77C730.5 380.77 738.764 420.182 767.462 436.751C796.159 453.319 834.423 440.77 834.423 440.77Z" fill="white"></path>
<path d="M925.066 531.038C925.066 531.038 927.284 490.829 903.853 467.398C880.421 443.967 840.213 446.185 840.213 446.185C840.213 446.185 837.995 486.393 861.426 509.824C884.858 533.256 925.066 531.038 925.066 531.038Z" fill="white"></path>
<path d="M600 346C600 346 573.137 316 540 316C506.863 316 480 346 480 346C480 346 506.863 376 540 376C573.137 376 600 346 600 346Z" fill="white"></path>
<path d="M356.604 378.773C356.604 378.773 374.787 342.843 406.794 334.266C438.802 325.69 472.515 347.715 472.515 347.715C472.515 347.715 454.332 383.645 422.324 392.222C390.316 400.798 356.604 378.773 356.604 378.773Z" fill="white"></path>
<path d="M245.856 441.77C245.856 441.77 254.12 402.358 282.818 385.789C311.515 369.221 349.779 381.77 349.779 381.77C349.779 381.77 341.515 421.182 312.818 437.751C284.12 454.319 245.856 441.77 245.856 441.77Z" fill="white"></path>
<path d="M155.213 532.038C155.213 532.038 152.995 491.83 176.426 468.398C199.858 444.967 240.066 447.185 240.066 447.185C240.066 447.185 242.284 487.393 218.853 510.825C195.421 534.256 155.213 532.038 155.213 532.038Z" fill="white"></path>
<path d="M349 518C349 518 393.772 468 449 468C504.228 468 549 518 549 518C549 518 504.228 568 449 568C393.772 568 349 518 349 518Z" fill="white"></path>
<circle cx="449" cy="518.001" r="50" fill="#FF85FF"></circle>
<path d="M449.174 468C449.174 468 470.603 490.386 470.603 518C470.603 545.614 449.174 568 449.174 568C449.174 568 427.746 545.614 427.746 518C427.746 490.386 449.174 468 449.174 468Z" fill="#7B1979"></path>
</svg><style>@media (prefers-color-scheme: light) { :root { filter: none; } }
@media (prefers-color-scheme: dark) { :root { filter: none; } }
</style></svg>