<svg width="32" height="32" viewBox="0 0 32 32" fill="none" xmlns="http://www.w3.org/2000/svg">
<path d="M23.2304 25.1861C23.2304 25.1861 22.5141 26.6016 21.2531 26.9395C19.9921 27.2773 18.664 26.4097 18.664 26.4097C18.664 26.4097 19.3804 24.9942 20.6413 24.6563C21.9023 24.3184 23.2304 25.1861 23.2304 25.1861Z" fill="black"/>
<path d="M27.5935 22.7042C27.5935 22.7042 27.2679 24.2569 26.1373 24.9096C25.0068 25.5623 23.4994 25.068 23.4994 25.068C23.4994 25.068 23.8249 23.5153 24.9555 22.8626C26.086 22.2099 27.5935 22.7042 27.5935 22.7042Z" fill="black"/>
<path d="M31.1643 19.1482C31.1643 19.1482 31.2517 20.7322 30.3286 21.6553C29.4056 22.5784 27.8215 22.491 27.8215 22.491C27.8215 22.491 27.7342 20.907 28.6572 19.9839C29.5803 19.0608 31.1643 19.1482 31.1643 19.1482Z" fill="black"/>
<path d="M18.3583 26.4377C18.3583 26.4377 17.3 27.6196 15.9946 27.6196C14.6891 27.6196 13.6309 26.4377 13.6309 26.4377C13.6309 26.4377 14.6891 25.2559 15.9946 25.2559C17.3 25.2559 18.3583 26.4377 18.3583 26.4377Z" fill="black"/>
<path d="M8.7696 25.1466C8.7696 25.1466 9.48593 26.562 10.7469 26.8999C12.0079 27.2378 13.336 26.3701 13.336 26.3701C13.336 26.3701 12.6196 24.9546 11.3587 24.6167C10.0977 24.2789 8.7696 25.1466 8.7696 25.1466Z" fill="black"/>
<path d="M4.40654 22.6649C4.40654 22.6649 4.7321 24.2176 5.86265 24.8703C6.9932 25.523 8.50062 25.0286 8.50062 25.0286C8.50062 25.0286 8.17506 23.476 7.04451 22.8233C5.91396 22.1705 4.40654 22.6649 4.40654 22.6649Z" fill="black"/>
<path d="M0.835656 19.1089C0.835656 19.1089 0.748267 20.6929 1.67136 21.616C2.59445 22.5391 4.17846 22.4517 4.17846 22.4517C4.17846 22.4517 4.26585 20.8677 3.34276 19.9446C2.41967 19.0215 0.835656 19.1089 0.835656 19.1089Z" fill="black"/>
<path d="M23.2304 12.4335C23.2304 12.4335 22.5141 11.018 21.2531 10.6802C19.9921 10.3423 18.664 11.21 18.664 11.21C18.664 11.21 19.3804 12.6255 20.6413 12.9633C21.9023 13.3012 23.2304 12.4335 23.2304 12.4335Z" fill="black"/>
<path d="M27.5935 14.9154C27.5935 14.9154 27.2679 13.3627 26.1373 12.71C25.0068 12.0573 23.4994 12.5517 23.4994 12.5517C23.4994 12.5517 23.8249 14.1043 24.9555 14.7571C26.086 15.4098 27.5935 14.9154 27.5935 14.9154Z" fill="black"/>
<path d="M31.1643 18.4715C31.1643 18.4715 31.2517 16.8874 30.3286 15.9644C29.4056 15.0413 27.8215 15.1287 27.8215 15.1287C27.8215 15.1287 27.7342 16.7127 28.6572 17.6358C29.5803 18.5588 31.1643 18.4715 31.1643 18.4715Z" fill="black"/>
<path d="M18.3583 11.1819C18.3583 11.1819 17.3 10.0001 15.9946 10.0001C14.6891 10.0001 13.6309 11.1819 13.6309 11.1819C13.6309 11.1819 14.6891 12.3638 15.9946 12.3638C17.3 12.3638 18.3583 11.1819 18.3583 11.1819Z" fill="black"/>
<path d="M8.7696 12.4728C8.7696 12.4728 9.48593 11.0573 10.7469 10.7195C12.0079 10.3816 13.336 11.2493 13.336 11.2493C13.336 11.2493 12.6196 12.6648 11.3587 13.0026C10.0977 13.3405 8.7696 12.4728 8.7696 12.4728Z" fill="black"/>
<path d="M4.40654 14.9547C4.40654 14.9547 4.7321 13.402 5.86265 12.7493C6.9932 12.0966 8.50062 12.591 8.50062 12.591C8.50062 12.591 8.17506 14.1436 7.04451 14.7964C5.91396 15.4491 4.40654 14.9547 4.40654 14.9547Z" fill="black"/>
<path d="M0.835656 18.5108C0.835656 18.5108 0.748267 16.9268 1.67136 16.0037C2.59445 15.0806 4.17846 15.168 4.17846 15.168C4.17846 15.168 4.26585 16.752 3.34276 17.6751C2.41967 18.5982 0.835656 18.5108 0.835656 18.5108Z" fill="black"/>
<path d="M8.47006 17.9577C8.47006 17.9577 10.2338 15.988 12.4096 15.988C14.5853 15.988 16.3491 17.9577 16.3491 17.9577C16.3491 17.9577 14.5853 19.9275 12.4096 19.9275C10.2338 19.9275 8.47006 17.9577 8.47006 17.9577Z" fill="black"/>
<circle cx="12.4095" cy="17.9578" r="1.96977" fill="#FF85FF"/>
<path d="M12.4165 15.988C12.4165 15.988 13.2606 16.8699 13.2606 17.9577C13.2606 19.0456 12.4165 19.9275 12.4165 19.9275C12.4165 19.9275 11.5723 19.0456 11.5723 17.9577C11.5723 16.8699 12.4165 15.988 12.4165 15.988Z" fill="#7B1979"/>
</svg>
