<svg width="1080" height="595" viewBox="0 0 1080 595" fill="none" xmlns="http://www.w3.org/2000/svg">
<g clip-path="url(#clip0_8_85)">
<path d="M784.028 512.528C784.028 512.528 759.852 560.301 717.295 571.705C674.737 583.108 629.914 553.823 629.914 553.823C629.914 553.823 654.09 506.051 696.647 494.647C739.205 483.244 784.028 512.528 784.028 512.528Z" fill="white"/>
<path d="M931.277 428.768C931.277 428.768 920.289 481.17 882.133 503.2C843.977 525.229 793.102 508.544 793.102 508.544C793.102 508.544 804.09 456.142 842.246 434.112C880.402 412.083 931.277 428.768 931.277 428.768Z" fill="white"/>
<path d="M1051.8 308.749C1051.8 308.749 1054.74 362.21 1023.59 393.364C992.436 424.518 938.976 421.569 938.976 421.569C938.976 421.569 936.026 368.108 967.181 336.954C998.335 305.8 1051.8 308.749 1051.8 308.749Z" fill="white"/>
<path d="M619.59 554.774C619.59 554.774 583.873 594.662 539.814 594.662C495.756 594.662 460.039 554.774 460.039 554.774C460.039 554.774 495.756 514.886 539.814 514.886C583.873 514.886 619.59 554.774 619.59 554.774Z" fill="white"/>
<path d="M295.972 511.199C295.972 511.199 320.148 558.972 362.705 570.375C405.263 581.778 450.086 552.494 450.086 552.494C450.086 552.494 425.91 504.721 383.353 493.318C340.795 481.914 295.972 511.199 295.972 511.199Z" fill="white"/>
<path d="M148.723 427.438C148.723 427.438 159.711 479.84 197.867 501.87C236.023 523.899 286.898 507.214 286.898 507.214C286.898 507.214 275.911 454.812 237.755 432.782C199.599 410.753 148.723 427.438 148.723 427.438Z" fill="white"/>
<path d="M28.205 307.419C28.205 307.419 25.2556 360.88 56.4099 392.034C87.5641 423.188 141.025 420.239 141.025 420.239C141.025 420.239 143.974 366.778 112.82 335.624C81.6654 304.47 28.205 307.419 28.205 307.419Z" fill="white"/>
<path d="M784.028 82.1332C784.028 82.1332 759.852 34.3604 717.295 22.9571C674.737 11.5539 629.914 40.8383 629.914 40.8383C629.914 40.8383 654.09 88.6111 696.647 100.014C739.205 111.418 784.028 82.1332 784.028 82.1332Z" fill="white"/>
<path d="M931.277 165.893C931.277 165.893 920.289 113.491 882.133 91.4615C843.977 69.4321 793.102 86.1176 793.102 86.1176C793.102 86.1176 804.09 138.52 842.246 160.549C880.402 182.579 931.277 165.893 931.277 165.893Z" fill="white"/>
<path d="M1051.8 285.912C1051.8 285.912 1054.74 232.452 1023.59 201.298C992.436 170.143 938.976 173.093 938.976 173.093C938.976 173.093 936.026 226.553 967.181 257.707C998.335 288.862 1051.8 285.912 1051.8 285.912Z" fill="white"/>
<path d="M619.59 39.8879C619.59 39.8879 583.873 9.57251e-05 539.814 9.57251e-05C495.756 9.57251e-05 460.039 39.8879 460.039 39.8879C460.039 39.8879 495.756 79.7756 539.814 79.7756C583.873 79.7756 619.59 39.8879 619.59 39.8879Z" fill="white"/>
<path d="M295.972 83.4628C295.972 83.4628 320.148 35.69 362.705 24.2867C405.263 12.8834 450.086 42.1679 450.086 42.1679C450.086 42.1679 425.91 89.9407 383.353 101.344C340.795 112.747 295.972 83.4628 295.972 83.4628Z" fill="white"/>
<path d="M148.723 167.223C148.723 167.223 159.711 114.821 197.867 92.7916C236.023 70.7622 286.898 87.4476 286.898 87.4476C286.898 87.4476 275.911 139.85 237.755 161.879C199.599 183.909 148.723 167.223 148.723 167.223Z" fill="white"/>
<path d="M28.205 287.242C28.205 287.242 25.2556 233.782 56.4099 202.627C87.5641 171.473 141.025 174.423 141.025 174.423C141.025 174.423 143.974 227.883 112.82 259.037C81.6654 290.192 28.205 287.242 28.205 287.242Z" fill="white"/>
<path d="M285.862 268.578C285.862 268.578 345.39 202.098 418.822 202.098C492.253 202.098 551.781 268.578 551.781 268.578C551.781 268.578 492.253 335.057 418.822 335.057C345.39 335.057 285.862 268.578 285.862 268.578Z" fill="white"/>
<circle cx="418.822" cy="268.578" r="66.4796" fill="#FF85FF"/>
<path d="M419.053 202.098C419.053 202.098 447.544 231.862 447.544 268.578C447.544 305.293 419.053 335.057 419.053 335.057C419.053 335.057 390.562 305.293 390.562 268.578C390.562 231.862 419.053 202.098 419.053 202.098Z" fill="#7B1979"/>
</g>
<defs>
<clipPath id="clip0_8_85">
<rect width="1080" height="594.865" fill="white"/>
</clipPath>
</defs>
</svg>
